<?xml version="1.0" encoding="UTF-8"?> <svg xmlns="http://www.w3.org/2000/svg" width="57" height="20" viewBox="0 0 57 20" fill="none"><path d="M0 0.5V19.5H19.8019V0.5H0Z" fill="white"></path><path d="M24.1335 10.4001H26.3529C27.2215 10.4001 27.82 10.7621 27.82 11.6759C27.82 12.5897 27.1214 12.8533 26.3133 12.8533H24.1335V10.3956V10.4001ZM22.1028 14.3793H26.5904C28.2648 14.3793 29.8624 13.604 29.8624 11.7898C29.8624 10.6727 29.2895 9.83708 28.1623 9.52429C28.5438 9.37215 28.8682 9.11261 29.0927 8.77994C29.3172 8.44726 29.4313 8.05709 29.4199 7.66093C29.4199 5.99641 28.2275 5.44456 26.4623 5.44456H22.1028V14.3815V14.3793ZM24.1382 6.97278H26.0455C26.772 6.97278 27.4427 7.14705 27.4427 7.9983C27.4427 8.749 26.9118 9.0618 26.1968 9.0618H24.1335V6.97278H24.1382ZM30.8475 14.3793H32.6895V11.4748C32.6895 10.3353 33.1553 9.39693 34.506 9.39693C34.7281 9.39746 34.9495 9.41841 35.1674 9.45949V7.79721C35.0379 7.75709 34.9029 7.736 34.7668 7.73466C34.3094 7.74154 33.8639 7.87511 33.4838 8.11928C33.1036 8.36346 32.8052 8.70783 32.6243 9.11095H32.5987V7.91116H30.8475V14.3793ZM39.8739 11.868C39.8739 12.2545 39.8227 13.356 38.3811 13.356C37.785 13.356 37.254 13.1929 37.254 12.5316C37.254 11.8702 37.771 11.6915 38.3439 11.5798C38.9168 11.4681 39.5619 11.4681 39.8739 11.2044V11.8747V11.868ZM37.4729 9.89964C37.5381 9.19809 37.9922 8.92327 38.6909 8.92327C39.3406 8.92327 39.8856 9.03722 39.8856 9.7991C39.8856 10.5252 38.8353 10.4872 37.7058 10.6503C36.5763 10.8134 35.4212 11.1508 35.4212 12.6142C35.4212 13.9414 36.4343 14.5536 37.7058 14.5536C38.5232 14.5536 39.3802 14.3301 39.9647 13.7537C39.9804 13.9665 40.0234 14.1766 40.0928 14.3793H41.9559C41.7859 14.1157 41.723 13.528 41.723 12.9404V9.57344C41.723 8.02287 40.1138 7.73466 38.777 7.73466C37.2726 7.73466 35.7286 8.23513 35.6238 9.89964H37.4729ZM42.9619 14.3681H44.804V10.9877C44.804 9.67398 45.2325 9.13553 46.2316 9.13553C47.0862 9.13553 47.4123 9.66281 47.4123 10.7263V14.3793H49.2544V10.4001C49.2544 8.79816 48.7606 7.73466 46.8021 7.73466C46.393 7.73059 45.9896 7.8275 45.6307 8.01609C45.2718 8.20467 44.9695 8.47859 44.7528 8.81156H44.6922V7.91786H42.941V14.386L42.9619 14.3681ZM55.2487 14.3681H57V5.43115H55.1579V8.69761H55.1323C54.9128 8.38978 54.6159 8.14011 54.269 7.97177C53.9222 7.80342 53.5366 7.72186 53.1481 7.73466C51.1756 7.73466 50.1766 9.35001 50.1766 11.086C50.1766 12.8734 51.1616 14.5513 53.1854 14.5513C54.0424 14.5513 54.7946 14.2519 55.2231 13.5504H55.2487V14.3771V14.3681ZM55.2231 11.1151C55.2231 12.1786 54.8598 13.2041 53.6395 13.2041C52.4984 13.2041 52.0093 12.1406 52.0093 11.1262C52.0093 10.0627 52.4239 9.0618 53.6395 9.0618C54.8551 9.0618 55.2231 10.0627 55.2231 11.1151Z" fill="white"></path><path d="M4.32453 10.3999H6.56717C7.44513 10.3999 8.04829 10.7618 8.04829 11.6756C8.04829 12.5894 7.34965 12.8531 6.52758 12.8531H4.32453V10.3954V10.3999ZM2.26819 14.3791H6.80238C8.49309 14.3791 10.1046 13.6038 10.1046 11.7896C10.1046 10.6725 9.52941 9.83686 8.3883 9.52406C9.20105 9.14871 9.65983 8.53653 9.65983 7.6607C9.65983 5.99619 8.45351 5.44434 6.67197 5.44434H2.26819V14.3813V14.3791ZM4.32453 6.97256H6.25278C6.98635 6.97256 7.6687 7.14683 7.6687 7.99807C7.6687 8.74878 7.13074 9.06157 6.40881 9.06157H4.31288V6.97256H4.32453ZM17.5242 11.5751C17.6546 9.58662 16.5415 7.73443 14.2336 7.73443C12.1773 7.73443 10.773 9.21127 10.773 11.1506C10.773 13.1614 12.0981 14.5533 14.2336 14.5533C15.7683 14.5533 16.8815 13.9032 17.4054 12.3772H15.7753C15.6495 12.7771 15.0464 13.2083 14.2988 13.2083C13.2648 13.2083 12.6873 12.6945 12.6337 11.5684L17.5242 11.5751ZM12.6337 10.458C12.6362 10.268 12.6788 10.0804 12.759 9.90663C12.8392 9.73287 12.9553 9.57652 13.1003 9.44703C13.2453 9.31754 13.4162 9.21761 13.6025 9.15328C13.7889 9.08895 13.987 9.06155 14.1847 9.07274C15.0883 9.07274 15.4935 9.54864 15.6658 10.449L12.6337 10.458Z" fill="black"></path></svg> 