<?xml version="1.0" encoding="UTF-8"?> <svg xmlns="http://www.w3.org/2000/svg" width="56" height="16" viewBox="0 0 56 16" fill="none"><path d="M11.548 8.9502L10.9091 9.66045L11.5582 8.9502H11.548Z" fill="white"></path><path d="M5.08901 13.6823C4.94452 13.6823 4.80411 13.6823 4.6637 13.6626C4.80614 13.6744 4.94656 13.6823 5.08901 13.6823Z" fill="white"></path><path d="M5.09113 13.6822C5.20101 13.6822 5.3109 13.6822 5.41876 13.6704C5.3109 13.6704 5.20101 13.6822 5.09113 13.6822Z" fill="white"></path><path d="M38.3934 4.34619C38.0399 4.34619 37.7009 4.48196 37.4509 4.72364C37.2009 4.96532 37.0605 5.2931 37.0605 5.63489V9.51671C37.0605 10.7385 36.4113 11.3642 35.3959 11.3642C34.3804 11.3642 33.7822 10.7385 33.7822 9.51671V5.63489C33.7822 5.2931 33.6417 4.96532 33.3917 4.72364C33.1418 4.48196 32.8028 4.34619 32.4492 4.34619C32.0957 4.34619 31.7567 4.48196 31.5067 4.72364C31.2568 4.96532 31.1163 5.2931 31.1163 5.63489V10.3312C31.1163 12.4148 32.2925 13.7035 34.3092 13.7035C35.6584 13.7035 36.448 13.009 37.0605 12.2456V12.3479C37.0605 12.6897 37.2009 13.0175 37.4509 13.2591C37.7009 13.5008 38.0399 13.6366 38.3934 13.6366C38.7469 13.6366 39.0859 13.5008 39.3359 13.2591C39.5859 13.0175 39.7263 12.6897 39.7263 12.3479V5.63489C39.7263 5.2931 39.5859 4.96532 39.3359 4.72364C39.0859 4.48196 38.7469 4.34619 38.3934 4.34619Z" fill="white"></path><path d="M45.003 8.04324C43.9855 7.70287 43.0922 7.46677 43.0922 6.9572V6.93359C43.0922 6.57748 43.4259 6.30597 44.073 6.30597C44.6347 6.30597 45.353 6.52632 46.108 6.88244C46.2577 6.96356 46.4269 7.00497 46.5984 7.00245C46.7383 7.00534 46.8773 6.98114 47.0073 6.93126C47.1373 6.88139 47.2557 6.80686 47.3555 6.71206C47.4552 6.61727 47.5343 6.50412 47.5882 6.3793C47.642 6.25448 47.6694 6.1205 47.6688 5.98527C47.6713 5.78207 47.6128 5.58255 47.5005 5.41078C47.3882 5.23901 47.2268 5.10234 47.036 5.01727C46.1339 4.5731 45.1382 4.33547 44.1259 4.32275C42.2334 4.32275 40.6889 5.35764 40.6889 7.2051V7.23855C40.6889 9.00927 42.1805 9.59951 43.4951 9.96743C44.5289 10.2724 45.4405 10.4593 45.4405 11.0181V11.0535C45.4405 11.4588 45.0905 11.7303 44.3193 11.7303C43.411 11.6901 42.5316 11.409 41.7776 10.9177C41.6175 10.8288 41.436 10.7821 41.2514 10.7823C41.0668 10.7825 40.8854 10.8296 40.7255 10.9188C40.5656 11.0081 40.4328 11.1364 40.3403 11.2909C40.2478 11.4454 40.1989 11.6206 40.1984 11.7991C40.1974 11.976 40.2437 12.1501 40.3328 12.3046C40.422 12.4591 40.5509 12.5886 40.7072 12.6806C41.7603 13.3468 42.9896 13.7054 44.248 13.7135C46.283 13.7135 47.8438 12.7986 47.8438 10.782V10.7485C47.8438 9.07617 46.3176 8.46625 45.003 8.04324Z" fill="white"></path><path d="M53.1551 8.04324C52.1376 7.70287 51.2443 7.46677 51.2443 6.9572V6.93359C51.2443 6.57748 51.578 6.30596 52.2272 6.30596C52.7868 6.30596 53.5072 6.52632 54.2621 6.88243C54.4118 6.96356 54.581 7.00496 54.7526 7.00245C54.8924 7.00534 55.0314 6.98113 55.1615 6.93126C55.2915 6.88139 55.4098 6.80686 55.5096 6.71206C55.6094 6.61727 55.6885 6.50412 55.7423 6.3793C55.7961 6.25448 55.8235 6.1205 55.823 5.98527C55.8253 5.78234 55.767 5.58307 55.6551 5.41137C55.5432 5.23967 55.3825 5.10283 55.1921 5.01727C54.2893 4.57308 53.293 4.33545 52.2801 4.32275C50.3876 4.32275 48.845 5.35764 48.845 7.2051V7.23855C48.845 9.00927 50.3346 9.59951 51.6492 9.96743C52.685 10.2724 53.5967 10.4593 53.5967 11.0181V11.0535C53.5967 11.4588 53.2447 11.7303 52.4734 11.7303C51.5649 11.6865 50.6863 11.402 49.9338 10.9079C49.7737 10.819 49.5922 10.7723 49.4076 10.7725C49.2229 10.7727 49.0416 10.8197 48.8817 10.909C48.7218 10.9983 48.5889 11.1265 48.4964 11.281C48.4039 11.4355 48.355 11.6108 48.3546 11.7893C48.354 11.9661 48.4004 12.1401 48.4895 12.2945C48.5786 12.4489 48.7074 12.5784 48.8634 12.6707C49.917 13.3373 51.1471 13.6959 52.4062 13.7037C54.4412 13.7037 56 12.7888 56 10.7721V10.7387C55.9959 9.07616 54.4697 8.46625 53.1551 8.04324Z" fill="white"></path><path d="M26.1042 4.27951C24.7184 4.27951 23.825 4.90714 23.1759 5.75512V2.34746C23.1769 2.32845 23.1769 2.30941 23.1759 2.2904V1.78673C23.1759 1.44547 23.0357 1.11818 22.7861 0.876873C22.5365 0.635565 22.198 0.5 21.845 0.5C21.492 0.5 21.1535 0.635565 20.9039 0.876873C20.6543 1.11818 20.5141 1.44547 20.5141 1.78673V2.2117C20.5141 2.25695 20.5141 2.3022 20.5141 2.34942V12.3481C20.5117 12.6899 20.6498 13.0186 20.8981 13.2619C21.1463 13.5053 21.4844 13.6433 21.8379 13.6457C22.1914 13.648 22.5314 13.5145 22.7831 13.2745C23.0348 13.0345 23.1775 12.7076 23.1799 12.3658V12.3481C23.5244 12.7797 23.9688 13.1271 24.4774 13.3626C24.986 13.598 25.5445 13.7148 26.1083 13.7037C28.3345 13.7037 30.3817 12.0432 30.3817 9.00931V8.97587C30.3817 5.9499 28.2959 4.27951 26.1042 4.27951ZM25.7176 11.3447C25.224 11.3451 24.7415 11.204 24.3309 10.9391C23.9204 10.6743 23.6003 10.2977 23.4111 9.85702C23.222 9.4163 23.1723 8.93124 23.2683 8.46321C23.3644 7.99517 23.6018 7.56519 23.9507 7.22765C24.2995 6.89011 24.744 6.66019 25.228 6.56696C25.7121 6.47372 26.2138 6.52138 26.6698 6.70389C27.1258 6.8864 27.5156 7.19556 27.7898 7.59228C28.064 7.98899 28.2104 8.45543 28.2104 8.93258C28.2104 9.57197 27.9478 10.1852 27.4804 10.6375C27.0129 11.0898 26.3789 11.3442 25.7176 11.3447Z" fill="white"></path><path d="M19.7307 8.9504C19.7294 7.98462 19.4218 7.04245 18.8494 6.25094C18.2771 5.45942 17.4674 4.85662 16.5297 4.52382C15.592 4.19102 14.5712 4.14422 13.6051 4.38974C12.639 4.63526 11.774 5.16128 11.1268 5.89688L9.73079 7.45708L8.53626 8.79103L6.8513 10.6719C6.57848 10.9339 6.24708 11.1318 5.88266 11.2504C5.46058 11.3865 5.00857 11.4112 4.57332 11.3219C4.13807 11.2326 3.73537 11.0326 3.40682 10.7425C3.07826 10.4524 2.83578 10.0828 2.70441 9.67181C2.57304 9.26081 2.55755 8.82335 2.65954 8.40463C2.76153 7.98591 2.9773 7.6011 3.28457 7.28997C3.59183 6.97885 3.97944 6.75267 4.40736 6.63483C4.83527 6.51698 5.28797 6.51173 5.71869 6.61962C6.1494 6.72751 6.54251 6.94462 6.85741 7.24853C7.02264 7.41205 7.23464 7.5241 7.4662 7.5703C7.69776 7.61651 7.93832 7.59477 8.15701 7.50787C8.37571 7.42097 8.56255 7.27287 8.69358 7.08258C8.82461 6.8923 8.89383 6.6685 8.89238 6.4399C8.89238 6.39662 8.89238 6.35333 8.89238 6.31005V1.76716C8.87892 1.43435 8.73271 1.1195 8.48441 0.888629C8.2361 0.657762 7.90499 0.528809 7.56049 0.528809C7.216 0.528809 6.88488 0.657762 6.63658 0.888629C6.38827 1.1195 6.24206 1.43435 6.2286 1.76716V2.19213V4.35635C6.11871 4.33274 6.00679 4.30913 5.89283 4.29142C5.63108 4.25036 5.36639 4.22931 5.10122 4.22846C4.45986 4.20146 3.81927 4.29687 3.21604 4.50922C2.6128 4.72157 2.05874 5.04672 1.58547 5.4661C0.629678 6.31308 0.0610318 7.49246 0.00463225 8.74479C-0.0517673 9.99713 0.408699 11.2198 1.28473 12.1439C2.16077 13.068 3.38061 13.6178 4.67592 13.6723C4.81633 13.6841 4.95674 13.692 5.10122 13.692C5.21111 13.692 5.321 13.692 5.42886 13.6802H5.49398C5.83266 13.655 6.1676 13.5949 6.49315 13.5012C7.18192 13.3024 7.81648 12.9584 8.35108 12.4938L9.16507 11.6045L10.2172 10.4496C10.5787 11.518 11.3226 12.4266 12.3151 13.0121C13.3076 13.5975 14.4836 13.8215 15.6316 13.6437C16.7796 13.4658 17.8243 12.8979 18.578 12.0419C19.3316 11.1859 19.7446 10.0981 19.7429 8.974L19.7307 8.9504ZM14.8467 11.3763C14.1834 11.3758 13.5474 11.1209 13.0781 10.6676C12.6089 10.2143 12.3448 9.59959 12.3437 8.95827C12.3453 8.48719 12.4912 8.02713 12.7629 7.63612L11.5582 8.95827L12.7629 7.63612C12.7914 7.59284 12.8219 7.54956 12.8565 7.50627L13.1007 7.23279C13.1394 7.19541 13.1821 7.16 13.2248 7.12458C13.5871 6.82445 14.0307 6.63086 14.5032 6.5667C14.9757 6.50253 15.4572 6.57047 15.891 6.76249C16.3248 6.9545 16.6927 7.26256 16.9512 7.65027C17.2097 8.03798 17.348 8.48912 17.3497 8.9504C17.3503 9.26878 17.2859 9.58415 17.1602 9.87845C17.0346 10.1727 16.8501 10.4402 16.6175 10.6655C16.3848 10.8908 16.1085 11.0696 15.8043 11.1916C15.5001 11.3135 15.174 11.3763 14.8447 11.3763H14.8467Z" fill="white"></path><path style="mix-blend-mode:multiply" opacity="0.5" d="M19.7368 8.9481H17.3518C17.3518 9.5894 17.0883 10.2044 16.6193 10.6579C16.1502 11.1114 15.5141 11.3661 14.8508 11.3661C14.1875 11.3661 13.5514 11.1114 13.0823 10.6579C12.6133 10.2044 12.3498 9.5894 12.3498 8.9481C12.349 8.47903 12.4905 8.02004 12.7568 7.62793L11.5521 8.9481L10.9152 9.66033L10.2111 10.4335C10.5727 11.5021 11.3167 12.4108 12.3095 12.9963C13.3022 13.5817 14.4784 13.8056 15.6265 13.6275C16.7747 13.4494 17.8194 12.881 18.5729 12.0247C19.3263 11.1684 19.739 10.0802 19.7368 8.95597V8.9481Z" fill="url(#paint0_linear_2331_871)"></path><defs><linearGradient id="paint0_linear_2331_871" x1="10.2111" y1="10.6539" x2="19.7368" y2="10.6539" gradientUnits="userSpaceOnUse"><stop></stop><stop offset="0.05" stop-color="#2A2A2A"></stop><stop offset="0.12" stop-color="#636363"></stop><stop offset="0.19" stop-color="#939393"></stop><stop offset="0.25" stop-color="#B8B8B8"></stop><stop offset="0.31" stop-color="#D2D2D2"></stop><stop offset="0.36" stop-color="#E2E2E2"></stop><stop offset="0.41" stop-color="#E8E8E8"></stop><stop offset="0.53" stop-color="#F4F4F4"></stop><stop offset="0.71" stop-color="#FCFCFC"></stop><stop offset="1" stop-color="white"></stop></linearGradient></defs></svg> 