<?xml version="1.0" encoding="UTF-8"?> <svg xmlns="http://www.w3.org/2000/svg" width="89" height="78" viewBox="0 0 89 78" fill="none"><path d="M75.7213 23.2382V10.9673C75.7213 10.1524 76.3819 9.49184 77.1967 9.49184C78.0116 9.49184 78.6721 10.1524 78.6721 10.9673C78.6721 13.4118 80.6538 15.3935 83.0984 15.3935C85.5429 15.3935 87.5246 13.4118 87.5246 10.9673C87.5291 6.32222 84.4291 2.24687 79.9514 1.01137C75.4736 -0.224135 70.7224 1.68486 68.3443 5.67496C65.9661 1.68486 61.2149 -0.224135 56.7372 1.01137C52.2595 2.24687 49.1594 6.32222 49.1639 10.9673V20.2255C47.1092 20.9974 45.145 21.9919 43.3066 23.191C39.4662 25.6581 34.7495 26.3521 30.3613 25.0958C20.7339 22.4205 10.4647 26.0944 4.71916 34.2696C-1.0264 42.4447 -1.00446 53.3513 4.77394 61.5033C10.5523 69.6553 20.8362 73.2878 30.4528 70.5738C34.8178 69.3311 39.5073 70.0433 43.3066 72.5258C48.0851 75.6894 53.6916 77.3714 59.4225 77.3607C60.6013 77.3603 61.7792 77.2918 62.9502 77.1556C75.2603 75.7146 85.3548 66.7284 88.2115 54.6679C91.0683 42.6075 86.0771 30.048 75.7213 23.2382ZM53.5902 36.0492C55.4592 36.0415 57.1219 34.8606 57.7449 33.0984H67.1403C67.6882 34.6649 69.07 35.7906 70.7149 36.0105C72.3598 36.2305 73.9887 35.5075 74.929 34.14C78.8458 38.5072 80.7009 44.3448 80.0236 50.1718C78.9411 59.692 71.4623 67.2227 61.9498 68.371C61.1339 68.4646 60.3131 68.5104 59.4918 68.5082C55.4677 68.5141 51.531 67.3338 48.1739 65.1148C42.2229 61.2509 34.8963 60.1365 28.0656 62.0563C26.1358 62.5929 24.1184 62.7388 22.1315 62.4856C16.7032 61.7185 12.1478 58.0049 10.3026 52.8425C8.45743 47.6801 9.62677 41.9203 13.339 37.8861C17.0512 33.852 22.6941 32.2088 27.9918 33.6192C34.845 35.5482 42.1965 34.4419 48.1784 30.5814C48.4985 30.3689 48.8335 30.183 49.1639 29.9912V31.623C49.1639 34.0675 51.1456 36.0492 53.5902 36.0492ZM58.0164 30.1476V27.1968H66.8689V30.1476H58.0164ZM66.8689 24.2459H58.0164V21.2951H66.8689V24.2459ZM66.8689 18.3443H58.0164V10.9673C58.0164 10.1524 58.677 9.49184 59.4918 9.49184C60.3067 9.49184 60.9672 10.1524 60.9672 10.9673C60.9672 13.4118 62.9489 15.3935 65.3934 15.3935C65.8972 15.3886 66.3963 15.2968 66.8689 15.122V18.3443ZM77.1967 3.5902C81.2689 3.59508 84.5689 6.89504 84.5738 10.9673C84.5738 11.7821 83.9132 12.4427 83.0984 12.4427C82.2835 12.4427 81.623 11.7821 81.623 10.9673C81.623 8.52271 79.6413 6.54102 77.1967 6.54102C74.7522 6.54102 72.7705 8.52271 72.7705 10.9673V31.623C72.7705 32.4378 72.1099 33.0984 71.2951 33.0984C70.4802 33.0984 69.8197 32.4378 69.8197 31.623V10.9673C69.8246 6.89504 73.1245 3.59508 77.1967 3.5902ZM59.4918 3.5902C63.564 3.59508 66.864 6.89504 66.8689 10.9673C66.8689 11.7821 66.2083 12.4427 65.3934 12.4427C64.5786 12.4427 63.918 11.7821 63.918 10.9673C63.918 8.52271 61.9363 6.54102 59.4918 6.54102C57.0473 6.54102 55.0656 8.52271 55.0656 10.9673V31.623C55.0656 32.4378 54.405 33.0984 53.5902 33.0984C52.7753 33.0984 52.1148 32.4378 52.1148 31.623V10.9673C52.1196 6.89504 55.4196 3.59508 59.4918 3.5902ZM85.9016 50.8033C84.5118 63.0649 74.8728 72.7614 62.6197 74.224C56.418 74.9792 50.15 73.5034 44.9369 70.0604C40.4216 67.1115 34.8504 66.2629 29.662 67.7337C23.8168 69.3875 17.5398 68.3793 12.5066 64.9782C7.47334 61.5771 4.19627 56.1294 3.55017 50.0892C2.89148 44.2444 4.77794 38.3985 8.72886 34.0412C13.9607 28.2196 22.0335 25.8552 29.5794 27.9345C34.7843 29.4166 40.3754 28.5849 44.9236 25.652C46.2681 24.7778 47.687 24.0239 49.1639 23.3991V26.6568C48.2627 27.0842 47.3913 27.5717 46.5554 28.1159C41.2884 31.5135 34.8143 32.481 28.7841 30.7717C22.4049 29.0204 15.5813 30.9699 11.0902 35.8271C6.59903 40.6842 5.18888 47.6393 7.43355 53.8621C9.67822 60.0849 15.2036 64.5382 21.7612 65.4099C24.1369 65.7099 26.5486 65.5354 28.8564 64.8964C34.8665 63.2058 41.3136 64.1847 46.551 67.5832C50.3904 70.1179 54.8912 71.4659 59.4918 71.4591C60.4285 71.461 61.3645 71.4088 62.2951 71.3027C73.1687 69.9837 81.7147 61.3724 82.9508 50.4891C83.7294 43.7894 81.5782 37.0798 77.0492 32.0818C76.6066 31.592 76.1639 31.1538 75.7213 30.7318V26.8574C83.0811 32.5004 86.9446 41.588 85.9016 50.8033Z" fill="#999999"></path><path d="M41.7869 50.8033C40.8828 50.7926 40.0279 50.3899 39.4439 49.6997C38.3236 48.5204 36.7683 47.8527 35.1416 47.8527C33.515 47.8527 31.9597 48.5204 30.8394 49.6997C30.2634 50.3982 29.4054 50.8028 28.5001 50.8028C27.5948 50.8028 26.7368 50.3982 26.1608 49.6997C25.0427 48.5197 23.4886 47.8513 21.863 47.8513C20.2373 47.8513 18.6832 48.5197 17.5651 49.6997C16.9844 50.3901 16.1316 50.793 15.2295 50.8033C14.4147 50.8033 13.7541 51.4639 13.7541 52.2788C13.7541 53.0936 14.4147 53.7542 15.2295 53.7542C16.854 53.7484 18.406 53.0808 19.5274 51.9055C20.1025 51.2077 20.9594 50.8035 21.8637 50.8035C22.768 50.8035 23.6249 51.2077 24.2 51.9055C25.3189 53.0853 26.8734 53.7534 28.4993 53.7534C30.1253 53.7534 31.6798 53.0853 32.7987 51.9055C33.3761 51.2067 34.2352 50.8022 35.1416 50.8022C36.0481 50.8022 36.9072 51.2067 37.4846 51.9055C38.6077 53.0811 40.1611 53.7486 41.7869 53.7542C42.6017 53.7542 43.2623 53.0936 43.2623 52.2788C43.2623 51.4639 42.6017 50.8033 41.7869 50.8033Z" fill="#999999"></path><path d="M46.2013 41.9508C45.2995 41.9409 44.4468 41.5385 43.8657 40.8487C42.7476 39.6686 41.1935 39.0002 39.5679 39.0002C37.9422 39.0002 36.3881 39.6686 35.27 40.8487C34.689 41.5385 33.8363 41.9409 32.9344 41.9508C32.1196 41.9508 31.459 42.6114 31.459 43.4262C31.459 44.2411 32.1196 44.9016 32.9344 44.9016C34.5589 44.8959 36.1109 44.2283 37.2323 43.0529C37.8074 42.3551 38.6643 41.9509 39.5686 41.9509C40.4729 41.9509 41.3298 42.3551 41.9049 43.0529C43.0238 44.2327 44.5783 44.9009 46.2043 44.9009C47.8302 44.9009 49.3848 44.2327 50.5036 43.0529C51.081 42.3542 51.9401 41.9496 52.8466 41.9496C53.753 41.9496 54.6121 42.3542 55.1895 43.0529C56.3126 44.2285 57.866 44.896 59.4918 44.9016C60.3067 44.9016 60.9672 44.2411 60.9672 43.4262C60.9672 42.6114 60.3067 41.9508 59.4918 41.9508C58.5877 41.9401 57.7329 41.5374 57.1489 40.8472C56.0285 39.6679 54.4732 39.0001 52.8466 39.0001C51.2199 39.0001 49.6646 39.6679 48.5443 40.8472C47.9603 41.5374 47.1054 41.9401 46.2013 41.9508Z" fill="#999999"></path><path d="M55.7959 47.8525C54.1718 47.858 52.6202 48.5257 51.4995 49.7012C50.9185 50.391 50.0658 50.7934 49.1639 50.8034C48.3491 50.8034 47.6885 51.4639 47.6885 52.2788C47.6885 53.0936 48.3491 53.7542 49.1639 53.7542C50.7884 53.7484 52.3404 53.0808 53.4618 51.9055C54.0369 51.2077 54.8939 50.8035 55.7981 50.8035C56.7024 50.8035 57.5593 51.2077 58.1344 51.9055C59.2533 53.0853 60.8078 53.7535 62.4338 53.7535C64.0597 53.7535 65.6143 53.0853 66.7331 51.9055C67.3105 51.2067 68.1696 50.8022 69.0761 50.8022C69.9825 50.8022 70.8416 51.2067 71.419 51.9055C72.5421 53.0811 74.0955 53.7486 75.7213 53.7542C76.5362 53.7542 77.1967 53.0936 77.1967 52.2788C77.1967 51.4639 76.5362 50.8034 75.7213 50.8034C74.8172 50.7926 73.9624 50.39 73.3784 49.6998C72.258 48.5204 70.7027 47.8527 69.0761 47.8527C67.4494 47.8527 65.8941 48.5204 64.7738 49.6998C64.1978 50.3982 63.3398 50.8028 62.4345 50.8028C61.5292 50.8028 60.6712 50.3982 60.0953 49.6998C58.973 48.525 57.4206 47.858 55.7959 47.8525Z" fill="#999999"></path></svg> 