<?xml version="1.0" encoding="UTF-8"?> <svg xmlns="http://www.w3.org/2000/svg" width="78" height="78" viewBox="0 0 78 78" fill="none"><path d="M74.3438 54.1331V10.7402C74.3438 8.17812 72.2592 6.09375 69.6973 6.09375H58.6523V4.57031C58.6523 2.05024 56.6021 0 54.082 0C51.562 0 49.5117 2.05024 49.5117 4.57031V6.09375H24.832V4.57031C24.832 2.05024 22.7818 0 20.2617 0C17.7416 0 15.6914 2.05024 15.6914 4.57031V6.09375H4.64648C2.08452 6.09375 0 8.17812 0 10.7402V67.2598C0 69.8219 2.08452 71.9062 4.64648 71.9062H25.4111C26.2523 71.9062 26.9345 71.2242 26.9345 70.3828C26.9345 69.5414 26.2523 68.8594 25.4111 68.8594H4.64648C3.76441 68.8594 3.04688 68.1418 3.04688 67.2598V10.7402C3.04688 9.85816 3.76441 9.14062 4.64648 9.14062H15.6914V10.6641C15.6914 13.1841 17.7416 15.2344 20.2617 15.2344C22.7818 15.2344 24.832 13.1841 24.832 10.6641V9.14062H49.5117V10.6641C49.5117 13.1841 51.562 15.2344 54.082 15.2344C56.6021 15.2344 58.6523 13.1841 58.6523 10.6641V9.14062H69.6973C70.5793 9.14062 71.2969 9.85816 71.2969 10.7402V18.2812H13.7109C12.8697 18.2812 12.1875 18.9633 12.1875 19.8047C12.1875 20.6461 12.8697 21.3281 13.7109 21.3281H71.2969V51.5588C69.9998 50.7407 68.5632 50.1252 67.0312 49.7564V27.1172C67.0312 26.2758 66.3491 25.5938 65.5078 25.5938H8.83594C7.9947 25.5938 7.3125 26.2758 7.3125 27.1172V63.0703C7.3125 63.9117 7.9947 64.5938 8.83594 64.5938H49.3894C49.484 66.089 49.8086 67.5226 50.3292 68.8594H37.5984C36.7572 68.8594 36.075 69.5414 36.075 70.3828C36.075 71.2242 36.7572 71.9062 37.5984 71.9062H51.9649C54.5589 75.589 58.8428 78 63.6797 78C71.576 78 78 71.576 78 63.6797C78 60.0152 76.6158 56.6685 74.3438 54.1331ZM21.7852 10.6641C21.7852 11.5041 21.1017 12.1875 20.2617 12.1875C19.4217 12.1875 18.7383 11.5041 18.7383 10.6641V4.57031C18.7383 3.73029 19.4217 3.04688 20.2617 3.04688C21.1017 3.04688 21.7852 3.73029 21.7852 4.57031V10.6641ZM55.6055 10.6641C55.6055 11.5041 54.9221 12.1875 54.082 12.1875C53.242 12.1875 52.5586 11.5041 52.5586 10.6641V4.57031C52.5586 3.73029 53.242 3.04688 54.082 3.04688C54.9221 3.04688 55.6055 3.73029 55.6055 4.57031V10.6641ZM63.6797 49.3594C62.9714 49.3594 62.2752 49.4119 61.5941 49.5117H55.6969V40.6758H63.9844V49.3632C63.8831 49.361 63.7816 49.3594 63.6797 49.3594ZM49.5183 61.5469H44.3625V52.5586H52.65V54.5564C51.0256 56.5169 49.9128 58.916 49.5183 61.5469ZM10.3594 40.6758H18.6469V49.5117H10.3594V40.6758ZM21.6937 40.6758H29.9813V49.5117H21.6937V40.6758ZM44.3625 40.6758H52.65V49.5117H44.3625V40.6758ZM41.3156 49.5117H33.0281V40.6758H41.3156V49.5117ZM44.3625 37.6289V28.6406H52.65V37.6289H44.3625ZM41.3156 37.6289H33.0281V28.6406H41.3156V37.6289ZM29.9813 37.6289H21.6937V28.6406H29.9813V37.6289ZM29.9813 52.5586V61.5469H21.6937V52.5586H29.9813ZM33.0281 52.5586H41.3156V61.5469H33.0281V52.5586ZM63.9844 37.6289H55.6969V28.6406H63.9844V37.6289ZM18.6469 28.6406V37.6289H10.3594V28.6406H18.6469ZM10.3594 52.5586H18.6469V61.5469H10.3594V52.5586ZM63.6797 74.9531C57.4635 74.9531 52.4062 69.8959 52.4062 63.6797C52.4062 57.4635 57.4635 52.4062 63.6797 52.4062C69.8959 52.4062 74.9531 57.4635 74.9531 63.6797C74.9531 69.8959 69.8959 74.9531 63.6797 74.9531Z" fill="#999999"></path><path d="M68.0868 59.9872L63.375 64.6991L61.2784 62.6025C60.6837 62.0076 59.7194 62.0076 59.1238 62.6025C58.5289 63.1974 58.5289 64.1621 59.1238 64.757L62.2976 67.9307C62.5834 68.2164 62.9708 68.377 63.3748 68.377C63.7789 68.377 64.1663 68.2164 64.4521 67.9307L70.2411 62.1417C70.836 61.5468 70.836 60.5821 70.2411 59.9871C69.6462 59.3923 68.6819 59.3923 68.0868 59.9872Z" fill="#999999"></path><path d="M31.5047 68.8594C31.104 68.8594 30.711 69.0224 30.4276 69.3057C30.1444 69.5891 29.9813 69.9821 29.9813 70.3828C29.9813 70.7835 30.1443 71.1765 30.4276 71.4599C30.711 71.7432 31.104 71.9062 31.5047 71.9062C31.9054 71.9062 32.2984 71.7432 32.5818 71.4599C32.865 71.1765 33.0281 70.7835 33.0281 70.3828C33.0281 69.9821 32.8651 69.5891 32.5818 69.3057C32.2984 69.0224 31.9054 68.8594 31.5047 68.8594Z" fill="#999999"></path><path d="M8.69411 20.8818C8.97762 20.5984 9.14062 20.2054 9.14062 19.8047C9.14062 19.404 8.97762 19.011 8.69411 18.7276C8.4109 18.4443 8.01785 18.2812 7.61719 18.2812C7.21485 18.2812 6.82348 18.4443 6.54012 18.7276C6.25676 19.011 6.09375 19.404 6.09375 19.8047C6.09375 20.2054 6.25661 20.5984 6.54012 20.8818C6.82363 21.1651 7.21485 21.3281 7.61719 21.3281C8.01785 21.3281 8.4109 21.1651 8.69411 20.8818Z" fill="#999999"></path></svg> 