<?xml version="1.0" encoding="UTF-8"?> <svg xmlns="http://www.w3.org/2000/svg" width="70" height="80" viewBox="0 0 70 80" fill="none"><path d="M23.2803 44.6194C21.5261 45.7313 19.5298 46.4042 17.4604 46.5811C16.829 44.2741 14.736 42.6717 12.3442 42.6643H5.6807C2.73659 42.6643 0.349915 45.051 0.349915 47.9951V74.649C0.349915 77.5931 2.73659 79.9798 5.6807 79.9798H12.3442C14.7569 79.9703 16.8625 78.3414 17.4777 76.0084C18.6093 76.0678 19.7184 76.3476 20.7428 76.832C21.2572 77.0758 21.749 77.365 22.2421 77.6502C22.9778 78.099 23.7442 78.4953 24.5357 78.8363C26.5992 79.6238 28.7935 80.0118 31.0019 79.9798H54.9904C56.9612 79.9788 58.7706 78.8906 59.6953 77.1503C60.62 75.41 60.5091 73.3015 59.407 71.6678C60.9693 71.1301 62.1921 69.8954 62.7145 68.328C63.237 66.7605 62.9996 65.0391 62.0724 63.6716C64.0314 63.0011 65.4199 61.2501 65.6262 59.1898C65.8326 57.1295 64.8191 55.1379 63.0319 54.0922C63.858 53.1392 64.3148 51.9216 64.3193 50.6605C64.3193 47.7164 61.9326 45.3297 58.9885 45.3297H42.1539C44.2382 41.3609 48.0258 32.4892 44.3395 26.0363C42.7176 23.2016 39.3286 20.984 35.729 22.8178C31.9734 24.7262 32.8144 28.4964 33.2195 30.3062C34.2524 34.9493 30.9086 39.7657 23.2803 44.6194ZM12.3442 77.3144H5.6807C4.20864 77.3144 3.01531 76.1211 3.01531 74.649V47.9951C3.01531 46.523 4.20864 45.3297 5.6807 45.3297H12.3442C13.8162 45.3297 15.0096 46.523 15.0096 47.9951V74.649C15.0096 76.1211 13.8162 77.3144 12.3442 77.3144ZM35.8209 29.7265C35.2186 27.0305 35.4891 25.9296 36.9377 25.1953C39.2886 23.9959 41.2437 25.995 42.026 27.361C46.0094 34.3363 38.8128 45.8335 38.7395 45.9494C38.4797 46.3597 38.4637 46.8789 38.6977 47.3045C38.9317 47.7301 39.3787 47.9947 39.8643 47.9951H58.9885C60.4606 47.9951 61.6539 49.1884 61.6539 50.6605C61.6539 52.1325 60.4606 53.3259 58.9885 53.3259H50.9923C50.2563 53.3259 49.6596 53.9225 49.6596 54.6586C49.6596 55.3946 50.2563 55.9913 50.9923 55.9913H60.3212C61.7933 55.9913 62.9866 57.1846 62.9866 58.6567C62.9866 60.1287 61.7933 61.3221 60.3212 61.3221H50.9923C50.2563 61.3221 49.6596 61.9187 49.6596 62.6548C49.6596 63.3908 50.2563 63.9874 50.9923 63.9874H57.6558C59.1279 63.9874 60.3212 65.1808 60.3212 66.6528C60.3212 68.1249 59.1279 69.3182 57.6558 69.3182H50.9923C50.2563 69.3182 49.6596 69.9149 49.6596 70.6509C49.6596 71.387 50.2563 71.9836 50.9923 71.9836H54.9904C56.4625 71.9836 57.6558 73.177 57.6558 74.649C57.6558 76.1211 56.4625 77.3144 54.9904 77.3144H31.0019C29.1369 77.347 27.2827 77.025 25.5379 76.3655C24.8625 76.0709 24.2083 75.7298 23.5801 75.3447C23.0257 75.0222 22.4687 74.7023 21.8916 74.4264C20.5675 73.8036 19.1359 73.4417 17.675 73.3603V49.2625C20.1789 49.0407 22.5924 48.2177 24.7103 46.8636C33.3861 41.3489 37.1243 35.5824 35.8209 29.7265Z" fill="#999999"></path><path d="M51.0057 1.31216V1.34015V1.35081C51.0057 1.84124 50.8844 13.3451 40.3321 13.3451C39.5961 13.3451 38.9994 13.9417 38.9994 14.6778C38.9994 15.4138 39.5961 16.0105 40.3321 16.0105C50.8431 16.0105 51.0043 27.517 51.0057 28.0047C50.9957 28.7408 51.5843 29.3455 52.3204 29.3554C53.0564 29.3654 53.6611 28.7767 53.6711 28.0407V28.0127V28.0047C53.6711 27.5143 53.7923 16.0105 64.3459 16.0105C65.082 16.0105 65.6786 15.4138 65.6786 14.6778C65.6786 13.9417 65.082 13.3451 64.3459 13.3451C53.8336 13.3451 53.6737 1.83858 53.6711 1.35081C53.681 0.614784 53.0924 0.0100603 52.3564 0.000123972C51.6203 -0.00981239 51.0156 0.578801 51.0057 1.31483V1.31216ZM58.2689 14.6778C55.5398 16.1174 53.4304 18.504 52.337 21.3892C51.2443 18.5036 49.1347 16.1168 46.4052 14.6778C49.1347 13.2388 51.2443 10.8519 52.337 7.96631C53.4304 10.8515 55.5398 13.2382 58.2689 14.6778Z" fill="#999999"></path><path d="M17.675 17.3432V17.3352C17.6728 16.5991 17.0743 16.0043 16.3383 16.0065C15.6022 16.0087 15.0074 16.6071 15.0096 17.3432C15.0096 17.6697 14.8976 25.3393 8.34609 25.3393C7.61007 25.3393 7.0134 25.936 7.0134 26.672C7.0134 27.4081 7.61007 28.0047 8.34609 28.0047C14.8976 28.0047 15.0096 35.6771 15.0096 36.0009V36.0089C15.0118 36.7449 15.6102 37.3398 16.3463 37.3376C17.0823 37.3354 17.6772 36.7369 17.675 36.0009C17.675 35.6744 17.7869 28.0047 24.3384 28.0047C25.0745 28.0047 25.6711 27.4081 25.6711 26.672C25.6711 25.936 25.0745 25.3393 24.3384 25.3393C17.7869 25.3393 17.675 17.667 17.675 17.3432ZM19.4661 26.672C18.1166 27.5721 17.0369 28.8218 16.3423 30.2876C15.6476 28.8218 14.5679 27.5721 13.2184 26.672C14.5682 25.7722 15.6479 24.5225 16.3423 23.0564C17.0366 24.5225 18.1164 25.7722 19.4661 26.672Z" fill="#999999"></path><path d="M62.9866 28.0048C62.2506 28.0048 61.6539 28.6014 61.6539 29.3375V32.0028C61.6539 32.7389 62.2506 33.3355 62.9866 33.3355C63.7226 33.3355 64.3193 32.7389 64.3193 32.0028V29.3375C64.3193 28.6014 63.7226 28.0048 62.9866 28.0048Z" fill="#999999"></path><path d="M62.9866 41.3316C63.7226 41.3316 64.3193 40.735 64.3193 39.9989V37.3335C64.3193 36.5975 63.7226 36.0009 62.9866 36.0009C62.2506 36.0009 61.6539 36.5975 61.6539 37.3335V39.9989C61.6539 40.735 62.2506 41.3316 62.9866 41.3316Z" fill="#999999"></path><path d="M65.652 36.0008H68.3174C69.0534 36.0008 69.6501 35.4042 69.6501 34.6681C69.6501 33.9321 69.0534 33.3354 68.3174 33.3354H65.652C64.916 33.3354 64.3193 33.9321 64.3193 34.6681C64.3193 35.4042 64.916 36.0008 65.652 36.0008Z" fill="#999999"></path><path d="M60.3212 36.0008C61.0572 36.0008 61.6539 35.4042 61.6539 34.6681C61.6539 33.9321 61.0572 33.3354 60.3212 33.3354H57.6558C56.9198 33.3354 56.3231 33.9321 56.3231 34.6681C56.3231 35.4042 56.9198 36.0008 57.6558 36.0008H60.3212Z" fill="#999999"></path><path d="M29.3933 12.2883L31.3924 14.2873C31.9153 14.7924 32.7465 14.7851 33.2606 14.2711C33.7746 13.757 33.7819 12.9258 33.2768 12.4029L31.2778 10.4038C30.9432 10.0574 30.4477 9.91845 29.9817 10.0404C29.5158 10.1624 29.1519 10.5263 29.0299 10.9922C28.908 11.4582 29.0469 11.9537 29.3933 12.2883Z" fill="#999999"></path><path d="M25.3953 8.29017C25.9182 8.79522 26.7494 8.788 27.2635 8.27394C27.7775 7.75987 27.7848 6.92866 27.2797 6.40574L25.2807 4.4067C24.7577 3.90164 23.9265 3.90886 23.4125 4.42293C22.8984 4.937 22.8912 5.76821 23.3962 6.29113L25.3953 8.29017Z" fill="#999999"></path><path d="M23.3962 14.2873C23.9167 14.8076 24.7603 14.8076 25.2807 14.2873L27.2797 12.2883C27.6262 11.9537 27.7651 11.4582 27.6431 10.9922C27.5212 10.5263 27.1573 10.1624 26.6913 10.0404C26.2254 9.91845 25.7299 10.0574 25.3953 10.4038L23.3962 12.4029C22.876 12.9233 22.876 13.7669 23.3962 14.2873Z" fill="#999999"></path><path d="M30.3356 8.68072C30.689 8.68065 31.0279 8.54019 31.2778 8.29024L33.2768 6.2912C33.6233 5.95659 33.7622 5.46109 33.6402 4.99514C33.5183 4.52919 33.1544 4.16531 32.6884 4.04334C32.2225 3.92138 31.727 4.06032 31.3924 4.40677L29.3933 6.40581C29.0123 6.78695 28.8984 7.36007 29.1046 7.85799C29.3108 8.35591 29.7966 8.68061 30.3356 8.68072Z" fill="#999999"></path></svg> 