<?xml version="1.0" encoding="UTF-8"?> <svg xmlns="http://www.w3.org/2000/svg" width="76" height="77" viewBox="0 0 76 77" fill="none"><path d="M74.5156 14.7762H69.087V9.3628C69.087 8.54313 68.4223 7.87842 67.6026 7.87842H62.1781V2.46936C62.1781 1.66186 61.5011 0.984985 60.6937 0.984985H40.9558H21.218H1.48438C0.664703 0.984985 0 1.64969 0 2.46936V22.159V41.8531V61.5453C0 62.3525 0.675539 63.0313 1.48438 63.0313H6.90887V68.4403C6.90887 69.26 7.57358 69.9247 8.39325 69.9247H13.8219V75.3381C13.8219 76.1577 14.4866 76.8224 15.3063 76.8224H74.5156C75.3353 76.8224 76 76.1577 76 75.3381V16.2605C76 15.4409 75.3353 14.7762 74.5156 14.7762ZM24.8075 60.0627L35.2591 49.6349C37.1582 47.7403 39.057 45.845 40.9561 43.9504L48.7231 51.7001L40.3419 60.0627H24.8075ZM5.07374 60.0627L21.2205 43.9519L28.9876 51.6985L20.6042 60.0627H5.07374ZM59.2093 41.2372L50.8229 49.6014L43.0577 41.8534C48.4417 36.4817 53.8258 31.1099 59.2093 25.7372V41.2372ZM31.089 49.6017L23.3218 41.855L40.9578 24.2582L48.7215 32.008C45.7851 34.938 42.8489 37.8681 39.9123 40.798C39.9099 40.8004 39.9074 40.8023 39.905 40.8045C39.903 40.8066 39.9012 40.809 39.8991 40.8112C37.6534 43.0517 35.408 45.2928 33.1623 47.5332L31.089 49.6017ZM2.96875 25.7381L9.24899 32.0071L2.96875 38.2747V25.7381ZM21.2181 24.2561L28.9873 32.0081L20.2114 40.7645C20.1974 40.7772 20.1829 40.7889 20.1694 40.8023L11.3521 49.6018L3.5858 41.8529L12.3994 33.0588C12.4063 33.0519 12.412 33.0445 12.4187 33.0375L21.2181 24.2561ZM32.1375 13.365L40.9558 4.56634L48.7231 12.3164L39.9499 21.0702C39.9352 21.0839 39.9197 21.0962 39.9053 21.1104C39.8921 21.1236 39.8807 21.138 39.8682 21.1517L31.089 29.9113L23.3197 22.1593L32.1155 13.3849C32.1226 13.3779 32.1303 13.3721 32.1375 13.365ZM9.24973 51.6982L2.96875 57.9681V45.4312L9.24973 51.6982ZM59.2093 21.5433C56.4143 24.333 53.6184 27.1219 50.8229 29.9113L43.0593 22.1615L59.2093 6.04745V21.5433ZM50.8247 10.2194L44.5452 3.95374H57.1044L50.8247 10.2194ZM20.1697 21.1081C20.1695 21.1082 20.1694 21.1084 20.1694 21.1084L11.3503 29.91L3.5858 22.1593L21.2183 4.56604L28.986 12.3133L20.1697 21.1081ZM59.2093 45.4312V60.0627H44.5452L59.2093 45.4312ZM37.366 3.95374L31.0879 10.2166L24.8084 3.95374H37.366ZM17.6287 3.95374L2.96875 18.5811V3.95374H17.6287ZM73.0312 73.8538H16.7907V69.9249H34.7874C35.607 69.9249 36.2717 69.2602 36.2717 68.4405C36.2717 67.6208 35.607 66.9561 34.7874 66.9561H9.87762V63.0314H60.6937C61.5134 63.0314 62.1781 62.3667 62.1781 61.547V22.1612C62.1781 22.1608 62.1781 22.1602 62.1781 22.1602V10.8472H66.1182V66.9561H48.1215C47.3018 66.9561 46.6371 67.6208 46.6371 68.4405C46.6371 69.2602 47.3018 69.9249 48.1215 69.9249H67.6026C68.4223 69.9249 69.087 69.2602 69.087 68.4405V17.7449H73.0312V73.8538Z" fill="#999999"></path><path d="M41.4565 66.9563C40.6368 66.9563 39.9721 67.621 39.9721 68.4407C39.9721 69.2603 40.6368 69.925 41.4565 69.925H41.4607C42.2803 69.925 42.9428 69.2603 42.9428 68.4407C42.9428 67.621 42.2763 66.9563 41.4565 66.9563Z" fill="#999999"></path></svg> 