<?xml version="1.0" encoding="UTF-8"?> <svg xmlns="http://www.w3.org/2000/svg" width="41" height="40" viewBox="0 0 41 40" fill="none"><circle cx="20.5" cy="20" r="20" fill="#0E65E5"></circle><path d="M20.5 9.75224C23.8376 9.75224 24.233 9.76499 25.5511 9.82513C26.7698 9.8807 27.4317 10.0843 27.8721 10.2555C28.4556 10.4823 28.872 10.7531 29.3094 11.1905C29.7468 11.628 30.0177 12.0444 30.2445 12.6278C30.4157 13.0683 30.6193 13.7302 30.6749 14.9489C30.735 16.267 30.7477 16.6623 30.7477 19.9999C30.7477 23.3376 30.735 23.7329 30.6749 25.051C30.6193 26.2697 30.4157 26.9316 30.2445 27.3721C30.0177 27.9555 29.7468 28.3719 29.3094 28.8093C28.872 29.2468 28.4556 29.5176 27.8721 29.7444C27.4317 29.9156 26.7698 30.1192 25.5511 30.1748C24.2332 30.2349 23.8379 30.2477 20.5 30.2477C17.1621 30.2477 16.7669 30.2349 15.4489 30.1748C14.2302 30.1192 13.5683 29.9156 13.1279 29.7444C12.5444 29.5176 12.128 29.2468 11.6906 28.8093C11.2532 28.3719 10.9823 27.9555 10.7555 27.3721C10.5843 26.9316 10.3807 26.2697 10.3251 25.051C10.265 23.7329 10.2522 23.3376 10.2522 19.9999C10.2522 16.6623 10.265 16.267 10.3251 14.9489C10.3807 13.7302 10.5843 13.0683 10.7555 12.6278C10.9823 12.0444 11.2532 11.628 11.6906 11.1906C12.128 10.7531 12.5444 10.4823 13.1279 10.2555C13.5683 10.0843 14.2302 9.8807 15.4489 9.82513C16.767 9.76499 17.1624 9.75224 20.5 9.75224ZM20.5 7.5C17.1052 7.5 16.6795 7.51439 15.3463 7.57522C14.0158 7.63591 13.1071 7.84723 12.312 8.15621C11.49 8.47565 10.7929 8.90307 10.098 9.59798C9.40307 10.2929 8.97565 10.99 8.65626 11.812C8.34723 12.6071 8.13591 13.5158 8.07522 14.8462C8.01439 16.1795 8 16.6052 8 19.9999C8 23.3947 8.01439 23.8204 8.07522 25.1537C8.13591 26.4841 8.34723 27.3928 8.65626 28.1879C8.97565 29.0099 9.40307 29.707 10.098 30.4019C10.7929 31.0968 11.49 31.5243 12.312 31.8437C13.1071 32.1527 14.0158 32.364 15.3463 32.4247C16.6795 32.4855 17.1052 32.4999 20.5 32.4999C23.8948 32.4999 24.3205 32.4855 25.6537 32.4247C26.9842 32.364 27.8929 32.1527 28.688 31.8437C29.51 31.5243 30.2071 31.0968 30.902 30.4019C31.5969 29.707 32.0243 29.0099 32.3438 28.1879C32.6528 27.3928 32.8641 26.4841 32.9248 25.1537C32.9856 23.8204 33 23.3947 33 19.9999C33 16.6052 32.9856 16.1795 32.9248 14.8462C32.8641 13.5158 32.6528 12.6071 32.3438 11.812C32.0243 10.99 31.5969 10.2929 30.902 9.59798C30.2071 8.90307 29.51 8.47565 28.688 8.15621C27.8929 7.84723 26.9842 7.63591 25.6537 7.57522C24.3205 7.51439 23.8948 7.5 20.5 7.5Z" fill="white"></path><path d="M20.5059 13.5868C16.9607 13.5868 14.0869 16.4606 14.0869 20.0057C14.0869 23.5508 16.9607 26.4246 20.5059 26.4246C24.0509 26.4246 26.9247 23.5508 26.9247 20.0057C26.9247 16.4606 24.0509 13.5868 20.5059 13.5868ZM20.5059 24.1723C18.2046 24.1723 16.3392 22.3069 16.3392 20.0057C16.3392 17.7045 18.2046 15.839 20.5059 15.839C22.807 15.839 24.6725 17.7045 24.6725 20.0057C24.6725 22.3069 22.807 24.1723 20.5059 24.1723Z" fill="white"></path><path d="M28.678 13.329C28.678 14.1574 28.0064 14.829 27.178 14.829C26.3496 14.829 25.678 14.1574 25.678 13.329C25.678 12.5006 26.3496 11.829 27.178 11.829C28.0064 11.829 28.678 12.5006 28.678 13.329Z" fill="white"></path></svg> 