<?xml version="1.0" encoding="UTF-8"?> <svg xmlns="http://www.w3.org/2000/svg" width="726" height="261" viewBox="0 0 726 261" fill="none"><path d="M158.69 191.29C201.161 191.29 235.59 156.861 235.59 114.39C235.59 71.9193 201.161 37.49 158.69 37.49C116.219 37.49 81.79 71.9193 81.79 114.39C81.79 156.861 116.219 191.29 158.69 191.29Z" fill="#FFDE00"></path><path d="M258.56 93.79C261.48 98.92 265.33 101.37 269.18 101.37C275.36 101.37 278.63 98.22 278.63 88.08V38.74H295.89V89.48C295.89 104.17 288.31 116.18 271.51 116.18C259.85 116.18 252.15 111.64 246.9 102.42L258.56 93.79Z" fill="#BE1622"></path><path d="M302.53 56.94H319.67V90.62C319.67 98.9 321.89 101.62 326.91 101.62C331.22 101.62 333.78 99.76 337.17 95.21V56.94H354.31V114.78H340.31L339.02 106.78H338.67C333.77 112.61 328.41 116.22 320.48 116.22C307.88 116.22 302.48 107.36 302.48 92.9L302.53 56.94Z" fill="#BE1622"></path><path d="M360.6 33.03H377.75V97.52C377.75 101.14 379.38 102.31 380.75 102.31C381.458 102.337 382.166 102.256 382.85 102.07L384.95 114.78C382.194 115.812 379.261 116.288 376.32 116.18C364.54 116.18 360.57 108.49 360.57 96.82L360.6 33.03Z" fill="#BE1622"></path><path d="M390.34 123.88C396.05 123.88 398.97 120.88 400.49 116.3L401.3 113.3L379.03 56.97H396.29L404.57 81.81C406.2 87.06 407.57 92.54 409.12 98.25H409.58C410.87 92.77 412.15 87.25 413.58 81.81L420.58 56.97H437.03L416.97 115.4C411.49 129.98 405.31 137.4 391.66 137.4C388.895 137.442 386.142 137.047 383.5 136.23L386.5 123.17C387.751 123.542 389.038 123.78 390.34 123.88Z" fill="#BE1622"></path><path d="M454.36 119.33V136.24H437.24V56.94H451.24L452.41 62.65H452.88C457.43 58.57 463.26 55.54 469.32 55.54C483.32 55.54 491.95 67.08 491.95 84.93C491.95 104.76 480.05 116.18 467.57 116.18C462.57 116.18 457.89 113.97 453.81 110.12L454.36 119.33ZM463.58 102.19C469.52 102.19 474.31 97.06 474.31 85.19C474.31 74.81 471.16 69.56 464.31 69.56C460.81 69.56 457.78 71.2 454.39 74.81V98.49C456.863 100.86 460.155 102.185 463.58 102.19Z" fill="#BE1622"></path><path d="M520.14 55.54C534.71 55.54 548.24 66.62 548.24 85.86C548.24 105.1 534.71 116.18 520.14 116.18C505.57 116.18 491.91 105.1 491.91 85.86C491.91 66.62 505.44 55.54 520.14 55.54ZM520.14 102.31C527.14 102.31 530.75 95.89 530.75 85.86C530.75 75.83 527.13 69.41 520.14 69.41C513.15 69.41 509.53 75.83 509.53 85.86C509.53 95.89 513.02 102.31 520.14 102.31Z" fill="#BE1622"></path><path d="M576.12 55.54C590.7 55.54 604.23 66.62 604.23 85.86C604.23 105.1 590.7 116.18 576.12 116.18C561.54 116.18 547.89 105.1 547.89 85.86C547.89 66.62 561.43 55.54 576.12 55.54ZM576.12 102.31C583.12 102.31 586.73 95.89 586.73 85.86C586.73 75.83 583.12 69.41 576.12 69.41C569.12 69.41 565.51 75.83 565.51 85.86C565.51 95.89 569 102.31 576.12 102.31Z" fill="#BE1622"></path><path d="M607.24 33.03H624.39V97.52C624.39 101.14 626.02 102.31 627.39 102.31C628.098 102.337 628.806 102.256 629.49 102.07L631.59 114.78C628.834 115.813 625.901 116.289 622.96 116.18C611.24 116.18 607.24 108.49 607.24 96.82V33.03Z" fill="#BE1622"></path><path d="M636.96 44.62C635.846 44.6431 634.738 44.4376 633.706 44.0162C632.674 43.5948 631.74 42.9665 630.96 42.17C630.161 41.4059 629.529 40.4845 629.104 39.4638C628.679 38.4432 628.47 37.3455 628.49 36.24C628.468 35.123 628.677 34.0135 629.103 32.981C629.53 31.9485 630.166 31.0153 630.97 30.24C632.559 28.6681 634.705 27.7865 636.94 27.7865C639.175 27.7865 641.321 28.6681 642.91 30.24C643.699 31.0161 644.325 31.9415 644.753 32.9621C645.181 33.9828 645.401 35.0784 645.401 36.185C645.401 37.2916 645.181 38.3872 644.753 39.4079C644.325 40.4285 643.699 41.3539 642.91 42.13C642.139 42.9271 641.214 43.5589 640.191 43.987C639.168 44.4151 638.069 44.6305 636.96 44.62ZM636.96 28.68C635.2 28.6735 633.493 29.278 632.129 30.3902C630.765 31.5024 629.829 33.0535 629.482 34.7787C629.134 36.5039 629.396 38.2962 630.223 39.8499C631.049 41.4035 632.389 42.6221 634.014 43.2977C635.64 43.9732 637.449 44.0639 639.133 43.5542C640.818 43.0445 642.273 41.9661 643.251 40.5029C644.229 39.0397 644.668 37.2825 644.495 35.5312C644.322 33.7799 643.546 32.143 642.3 30.9C641.605 30.1868 640.77 29.6243 639.848 29.2475C638.926 28.8708 637.936 28.6878 636.94 28.71L636.96 28.68ZM639.82 41.62L638.51 38.82C638.27 38.2036 637.898 37.6472 637.42 37.19C637.08 36.9171 636.656 36.7689 636.22 36.77H634.9V41.62H633.9V30.69H636.9C637.888 30.6283 638.868 30.9033 639.68 31.47C639.999 31.7152 640.256 32.0323 640.43 32.3954C640.604 32.7585 640.689 33.1575 640.68 33.56C640.68 35.24 639.68 36.25 637.83 36.56C638.46 36.69 639.06 37.35 639.64 38.56L641.08 41.56L639.82 41.62ZM634.9 31.48V35.97H637.1C637.748 36.0009 638.383 35.7785 638.87 35.35C639.091 35.1434 639.265 34.8919 639.38 34.6125C639.496 34.3331 639.55 34.0322 639.54 33.73C639.54 32.23 638.63 31.48 636.82 31.48H634.9Z" fill="#BE1622"></path><path d="M25 230.16C143.07 117.31 197.24 86.62 346.94 152.17C480.4 210.62 547.5 215.91 662.38 114.62C689.48 130.36 670.8 120.88 704.53 138.45C572.77 264.84 489.34 245.45 333.35 180.77C198.15 124.76 141.41 138.85 25 230.16Z" fill="#36A9E1"></path><path d="M394.73 48.62V21.42H403.55C405.735 21.3339 407.923 21.4713 410.08 21.83C411.649 22.2438 413.029 23.1826 413.99 24.49C415.096 26.0298 415.652 27.8962 415.57 29.79C415.619 31.2469 415.306 32.6933 414.66 34C414.114 35.0644 413.322 35.9831 412.35 36.68C411.496 37.2959 410.527 37.7346 409.5 37.97C407.619 38.273 405.715 38.4036 403.81 38.36H400.24V48.62H394.73ZM400.23 26.02V33.74H403.23C404.69 33.8243 406.155 33.6792 407.57 33.31C408.265 33.0523 408.866 32.5882 409.29 31.98C409.708 31.353 409.924 30.6133 409.91 29.86C409.942 28.9624 409.631 28.0862 409.04 27.41C408.46 26.7714 407.681 26.3484 406.83 26.21C405.52 26.0435 404.2 25.98 402.88 26.02H400.23Z" fill="#878787"></path><path d="M423.71 48.62V21.42H429.24V48.62H423.71Z" fill="#878787"></path><path d="M436.84 39.81L442.19 39.29C442.358 40.8192 443.068 42.2379 444.19 43.29C445.324 44.1876 446.746 44.6393 448.19 44.56C449.615 44.6641 451.03 44.2641 452.19 43.43C452.601 43.1262 452.937 42.7318 453.171 42.2775C453.405 41.8232 453.531 41.321 453.54 40.81C453.557 40.2119 453.355 39.6283 452.97 39.17C452.423 38.6023 451.731 38.1944 450.97 37.99C450.32 37.76 448.86 37.37 446.57 36.8C443.63 36.0733 441.563 35.1767 440.37 34.11C439.577 33.4381 438.941 32.5996 438.509 31.6541C438.077 30.7086 437.859 29.6795 437.87 28.64C437.866 27.2546 438.277 25.8998 439.05 24.75C439.872 23.5053 441.055 22.5421 442.44 21.99C444.142 21.3206 445.962 21.0009 447.79 21.05C451.21 21.05 453.79 21.79 455.5 23.29C456.358 24.0355 457.046 24.9575 457.515 25.993C457.985 27.0285 458.225 28.1531 458.22 29.29L452.73 29.54C452.613 28.3882 452.076 27.3199 451.22 26.54C450.194 25.8559 448.97 25.5323 447.74 25.62C446.415 25.5463 445.102 25.8965 443.99 26.62C443.718 26.8065 443.496 27.0575 443.344 27.3506C443.192 27.6438 443.115 27.9699 443.12 28.3C443.12 28.6211 443.194 28.9379 443.336 29.2258C443.478 29.5136 443.685 29.7649 443.94 29.96C444.607 30.54 446.273 31.1433 448.94 31.77C450.988 32.2032 452.978 32.8744 454.87 33.77C456.1 34.4086 457.136 35.3651 457.87 36.54C458.628 37.8539 459.002 39.3541 458.95 40.87C458.952 42.4253 458.5 43.9474 457.65 45.25C456.77 46.6088 455.487 47.6579 453.98 48.25C452.091 48.9672 450.08 49.307 448.06 49.25C444.62 49.25 441.98 48.4567 440.14 46.87C438.163 45.0359 436.979 42.5031 436.84 39.81Z" fill="#878787"></path><path d="M484.79 38.62L490.11 40.31C489.532 42.9069 488.099 45.2346 486.04 46.92C483.588 48.5671 480.641 49.3138 477.7 49.033C474.759 48.7522 472.006 47.4614 469.91 45.38C467.583 42.92 466.42 39.5467 466.42 35.26C466.42 30.7267 467.587 27.21 469.92 24.71C471.103 23.4635 472.538 22.4841 474.13 21.8373C475.721 21.1906 477.433 20.8915 479.15 20.96C480.631 20.9034 482.109 21.1392 483.499 21.654C484.888 22.1687 486.163 22.9523 487.25 23.96C488.617 25.342 489.582 27.0706 490.04 28.96L484.6 30.26C484.35 28.9387 483.634 27.7509 482.582 26.9124C481.531 26.0739 480.214 25.6402 478.87 25.69C477.941 25.6599 477.018 25.8394 476.168 26.215C475.318 26.5907 474.563 27.1529 473.96 27.86C472.7 29.31 472.08 31.65 472.08 34.86C472.08 38.3 472.697 40.75 473.93 42.21C474.513 42.9207 475.252 43.4879 476.09 43.8676C476.927 44.2473 477.841 44.4295 478.76 44.4C480.144 44.4292 481.488 43.9324 482.52 43.01C483.714 41.8177 484.507 40.2834 484.79 38.62Z" fill="#878787"></path><path d="M498.46 48.62V21.42H503.95V48.62H498.46Z" fill="#878787"></path><path d="M513.04 48.62V21.42H518.38L529.51 39.62V21.46H534.62V48.62H529.11L518.11 30.88V48.62H513.04Z" fill="#878787"></path><path d="M568.75 48.62H562.75L560.37 42.44H549.53L547.29 48.62H541.46L552.05 21.42H557.86L568.75 48.62ZM558.64 37.9L554.89 27.81L551.24 37.9H558.64Z" fill="#878787"></path><path d="M574.07 39.81L579.42 39.29C579.588 40.8192 580.298 42.2379 581.42 43.29C582.553 44.1876 583.976 44.6393 585.42 44.56C586.845 44.6641 588.26 44.2641 589.42 43.43C589.831 43.1262 590.167 42.7318 590.401 42.2775C590.635 41.8232 590.761 41.321 590.77 40.81C590.788 40.2119 590.585 39.6283 590.2 39.17C589.653 38.6023 588.961 38.1944 588.2 37.99C587.55 37.76 586.09 37.37 583.8 36.8C580.86 36.0733 578.793 35.1767 577.6 34.11C576.807 33.4381 576.171 32.5996 575.739 31.6541C575.307 30.7086 575.089 29.6795 575.1 28.64C575.096 27.2546 575.507 25.8998 576.28 24.75C577.102 23.5053 578.285 22.5421 579.67 21.99C581.375 21.3198 583.198 21.0001 585.03 21.05C588.44 21.05 591.03 21.79 592.73 23.29C593.588 24.0355 594.276 24.9575 594.745 25.993C595.215 27.0285 595.455 28.1531 595.45 29.29L589.96 29.54C589.847 28.3871 589.309 27.3176 588.45 26.54C587.425 25.8545 586.2 25.5308 584.97 25.62C583.645 25.5463 582.332 25.8965 581.22 26.62C580.948 26.8065 580.726 27.0575 580.574 27.3506C580.422 27.6438 580.345 27.9699 580.35 28.3C580.35 28.6211 580.424 28.9379 580.566 29.2258C580.708 29.5136 580.915 29.7649 581.17 29.96C581.837 30.54 583.503 31.1433 586.17 31.77C588.218 32.2031 590.208 32.8744 592.1 33.77C593.33 34.4086 594.366 35.3651 595.1 36.54C595.858 37.8539 596.232 39.3541 596.18 40.87C596.182 42.4253 595.73 43.9474 594.88 45.25C594 46.6088 592.717 47.6578 591.21 48.25C589.321 48.9672 587.31 49.307 585.29 49.25C581.85 49.25 579.21 48.4567 577.37 46.87C575.393 45.0359 574.209 42.5031 574.07 39.81Z" fill="#878787"></path></svg> 